<svg xmlns="http://www.w3.org/2000/svg" viewBox="0 0 1600 1000">
  <defs>
    <linearGradient id="bg" x1="0" y1="0" x2="1" y2="1">
      <stop offset="0" stop-color="#12070b"/>
      <stop offset=".5" stop-color="#2a1017"/>
      <stop offset="1" stop-color="#0d0508"/>
    </linearGradient>
    <radialGradient id="moon">
      <stop offset="0" stop-color="#e2a0a8"/>
      <stop offset=".65" stop-color="#9b4657"/>
      <stop offset="1" stop-color="#4a1926"/>
    </radialGradient>
    <linearGradient id="mountain" x1="0" y1="0" x2="0" y2="1">
      <stop offset="0" stop-color="#2f0f18"/>
      <stop offset="1" stop-color="#090407"/>
    </linearGradient>
  </defs>
  <rect width="1600" height="1000" fill="url(#bg)"/>
  <circle cx="1260" cy="250" r="148" fill="url(#moon)" opacity=".72"/>
  <g fill="#5b1d2a" opacity=".34">
    <path d="M0 590L155 460 235 530 356 374 510 545 645 424 764 560 920 420 1070 566 1190 442 1340 555 1460 438 1600 550V1000H0Z"/>
  </g>
  <path d="M0 666L120 564 190 632 310 430 435 642 575 520 690 662 828 455 970 648 1125 512 1260 638 1390 516 1518 650 1600 594V1000H0Z" fill="url(#mountain)"/>
  <g fill="#0a0407">
    <path d="M0 745L156 624 242 676 347 522 468 742 588 628 714 746 842 548 980 742 1102 622 1223 742 1343 603 1467 756 1600 650V1000H0Z"/>
  </g>
  <g opacity=".1" stroke="#d2a1aa">
    <path d="M0 820H1600M0 875H1600M0 930H1600"/>
    <path d="M180 0V1000M420 0V1000M660 0V1000M900 0V1000M1140 0V1000M1380 0V1000"/>
  </g>
  <g fill="#f3dfe3" opacity=".35">
    <circle cx="190" cy="185" r="1.3"/><circle cx="390" cy="125" r="1"/><circle cx="580" cy="215" r="1.2"/><circle cx="790" cy="120" r="1"/><circle cx="960" cy="202" r="1.2"/><circle cx="1135" cy="92" r="1"/><circle cx="1410" cy="148" r="1.4"/>
  </g>
</svg>
